# Blender 4.5.3 LTS
# www.blender.org
mtllib model.mtl
o group1593787975
v 0.000000 0.553333 -0.283333
v -0.140000 0.553333 -0.245820
v -0.140000 -0.006667 -0.245820
v -0.000000 -0.006667 -0.283333
v -0.242487 0.553333 -0.143333
v -0.242487 -0.006667 -0.143333
v -0.280000 0.553333 -0.003333
v -0.280000 -0.006667 -0.003333
v -0.242487 0.553333 0.136667
v -0.242487 -0.006667 0.136667
v -0.140000 0.553333 0.239154
v -0.140000 -0.006667 0.239154
v 0.000000 0.553333 0.276667
v 0.000000 -0.006667 0.276667
v 0.140000 0.553333 0.239154
v 0.140000 -0.006667 0.239154
v 0.242487 0.553333 0.136667
v 0.242487 -0.006667 0.136667
v 0.280000 0.553333 -0.003333
v 0.280000 -0.006667 -0.003333
v 0.242487 0.553333 -0.143333
v 0.242487 -0.006667 -0.143333
v 0.140000 0.553333 -0.245820
v 0.140000 -0.006667 -0.245821
v -0.390000 0.003333 0.396667
v -0.390000 0.003333 -0.383333
v -0.390000 0.443333 -0.383333
v -0.390000 0.443333 0.396667
v 0.390000 0.003333 0.396667
v 0.390000 0.443333 0.396667
v 0.390000 0.443334 -0.383333
v 0.390000 0.003333 -0.383333
v -0.000000 0.643333 -0.243333
v -0.120000 0.643333 -0.211179
v -0.120000 0.163333 -0.211179
v 0.000000 0.163333 -0.243334
v -0.207846 0.643333 -0.123333
v -0.207846 0.163333 -0.123333
v -0.240000 0.643333 -0.003333
v -0.240000 0.163333 -0.003333
v -0.207846 0.643333 0.116667
v -0.207846 0.163333 0.116667
v -0.120000 0.643333 0.204513
v -0.120000 0.163333 0.204513
v 0.000000 0.643333 0.236667
v 0.000000 0.163333 0.236667
v 0.120000 0.643333 0.204513
v 0.120000 0.163333 0.204513
v 0.207846 0.643333 0.116667
v 0.207846 0.163333 0.116667
v 0.240000 0.643333 -0.003333
v 0.240000 0.163333 -0.003333
v 0.207846 0.643333 -0.123333
v 0.207846 0.163333 -0.123333
v 0.120000 0.643333 -0.211179
v 0.120000 0.163333 -0.211180
vn -0.0001 -0.0000 -1.0000
vn -0.5000 -0.0000 -0.8660
vn -0.8661 -0.0000 -0.5000
vn -1.0000 -0.0000 0.0001
vn -0.8660 -0.0000 0.5000
vn -0.5000 -0.0000 0.8661
vn 0.0001 0.0001 1.0000
vn 0.0001 -0.0000 1.0000
vn 0.5000 -0.0000 0.8660
vn 0.8661 -0.0000 0.5000
vn 1.0000 -0.0000 -0.0001
vn 0.8660 -0.0000 -0.5000
vn 0.5000 -0.0001 -0.8661
vn 0.5000 -0.0000 -0.8661
vn -0.0000 1.0000 -0.0000
vn -0.0000 -1.0000 -0.0000
vn -1.0000 -0.0000 -0.0000
vn 1.0000 -0.0000 -0.0000
vn -0.0000 -0.0000 1.0000
vn -0.0000 -0.0000 -1.0000
vn -1.0000 0.0001 0.0001
vn -0.5000 -0.0001 0.8661
vn 0.5000 -0.0001 0.8660
vt -0.085295 -0.019844
vt -0.090004 -0.006659
vt -0.037266 0.012175
vt -0.032557 -0.001009
vt -0.031460 -0.119195
vt -0.038482 -0.107083
vt 0.009965 -0.078996
vt 0.016987 -0.091108
vt 0.142474 -0.115240
vt 0.128714 -0.112659
vt 0.139038 -0.057619
vt 0.152798 -0.060200
vt 0.182392 0.105669
vt 0.174255 0.094277
vt 0.128686 0.126826
vt 0.136824 0.138218
vt 0.142480 0.128857
vt 0.137476 0.115782
vt 0.085176 0.135801
vt 0.090181 0.148876
vt 0.114760 0.073164
vt 0.110493 0.059830
vt 0.057157 0.076898
vt 0.061424 0.090232
vt 0.085295 -0.019844
vt 0.080586 -0.033028
vt 0.027849 -0.014193
vt 0.032557 -0.001009
vt 0.031460 -0.119195
vt 0.024438 -0.131307
vt -0.024009 -0.103220
vt -0.016987 -0.091108
vt -0.142474 -0.115240
vt -0.156234 -0.117821
vt -0.166558 -0.062781
vt -0.152798 -0.060200
vt -0.182393 0.105669
vt -0.190530 0.117061
vt -0.144961 0.149611
vt -0.136824 0.138218
vt -0.142480 0.128857
vt -0.147485 0.141932
vt -0.095186 0.161951
vt -0.090181 0.148876
vt -0.114760 0.073164
vt -0.119027 0.086498
vt -0.065691 0.103566
vt -0.061424 0.090232
vt -0.192302 0.107331
vt -0.182686 0.118176
vt -0.168935 0.122759
vt -0.154736 0.119853
vt -0.143891 0.110237
vt -0.139308 0.096487
vt -0.142214 0.082287
vt -0.151830 0.071443
vt -0.165580 0.066860
vt -0.179780 0.069765
vt -0.190624 0.079382
vt -0.195208 0.093132
vt 0.195208 0.093132
vt 0.190624 0.079382
vt 0.179780 0.069765
vt 0.165580 0.066860
vt 0.151830 0.071443
vt 0.142214 0.082287
vt 0.139308 0.096487
vt 0.143891 0.110237
vt 0.154736 0.119853
vt 0.168935 0.122759
vt 0.182686 0.118176
vt 0.192302 0.107331
vt 0.122525 0.099275
vt 0.167862 0.162747
vt 0.203666 0.137172
vt 0.158329 0.073701
vt -0.203666 0.137172
vt -0.167862 0.162747
vt -0.122525 0.099275
vt -0.158329 0.073701
vt 0.183805 0.146686
vt 0.218687 0.076921
vt 0.148922 0.042038
vt 0.114039 0.111803
vt -0.148922 0.042038
vt -0.218687 0.076921
vt -0.183805 0.146686
vt -0.114040 0.111803
vt 0.071236 -0.056235
vt 0.029799 -0.041437
vt 0.056034 0.032019
vt 0.097470 0.017220
vt -0.056034 0.032019
vt -0.029799 -0.041437
vt -0.071236 -0.056235
vt -0.097470 0.017220
vt -0.069285 -0.014126
vt -0.073321 -0.002825
vt -0.028118 0.013319
vt -0.024082 0.002018
vt -0.016753 -0.110669
vt -0.022771 -0.100287
vt 0.018755 -0.076212
vt 0.024773 -0.086594
vt 0.145608 -0.098532
vt 0.133814 -0.096319
vt 0.142663 -0.049142
vt 0.154457 -0.051354
vt 0.168559 0.115550
vt 0.161584 0.105785
vt 0.122525 0.133685
vt 0.129500 0.143450
vt 0.126604 0.134934
vt 0.122314 0.123727
vt 0.077486 0.140887
vt 0.081776 0.152094
vt 0.098569 0.078345
vt 0.094911 0.066916
vt 0.049195 0.081546
vt 0.052852 0.092975
vt 0.069285 -0.014126
vt 0.065249 -0.025427
vt 0.020046 -0.009283
vt 0.024082 0.002018
vt 0.016753 -0.110669
vt 0.010734 -0.121050
vt -0.030792 -0.096975
vt -0.024773 -0.086594
vt -0.145608 -0.098532
vt -0.157403 -0.100744
vt -0.166251 -0.053566
vt -0.154457 -0.051354
vt -0.168559 0.115550
vt -0.175534 0.125315
vt -0.136475 0.153214
vt -0.129500 0.143450
vt -0.126604 0.134934
vt -0.130894 0.146141
vt -0.086066 0.163301
vt -0.081776 0.152094
vt -0.098569 0.078345
vt -0.102226 0.089774
vt -0.056510 0.104404
vt -0.052852 0.092975
vt -0.188724 0.105542
vt -0.180482 0.114838
vt -0.168696 0.118766
vt -0.156525 0.116275
vt -0.147230 0.108033
vt -0.143301 0.096247
vt -0.145792 0.084076
vt -0.154034 0.074781
vt -0.165820 0.070852
vt -0.177991 0.073343
vt -0.187286 0.081586
vt -0.191215 0.093371
vt 0.191215 0.093371
vt 0.187286 0.081586
vt 0.177991 0.073343
vt 0.165820 0.070852
vt 0.154034 0.074781
vt 0.145792 0.084076
vt 0.143301 0.096247
vt 0.147230 0.108033
vt 0.156525 0.116275
vt 0.168696 0.118766
vt 0.180482 0.114838
vt 0.188724 0.105542
s 1
usemtl mat22
f 4/1/1 3/2/1 2/3/1 1/4/1
f 3/5/2 6/6/2 5/7/2 2/8/2
f 6/9/3 8/10/3 7/11/3 5/12/3
f 8/13/4 10/14/4 9/15/4 7/16/4
f 10/17/5 12/18/5 11/19/5 9/20/5
f 12/21/6 14/22/6 13/23/6 11/24/6
f 14/25/7 16/26/8 15/27/8 13/28/8
f 16/29/9 18/30/9 17/31/9 15/32/9
f 18/33/10 20/34/10 19/35/10 17/36/10
f 20/37/11 22/38/11 21/39/11 19/40/11
f 22/41/12 24/42/12 23/43/12 21/44/12
f 24/45/13 4/46/14 1/47/14 23/48/14
f 24/61/16 22/62/16 20/63/16 18/64/16 16/65/16 14/66/16 12/67/16 10/68/16 8/69/16 6/70/16 3/71/16 4/72/16
usemtl mat21
f 28/73/17 27/74/17 26/75/17 25/76/17
f 32/77/18 31/78/18 30/79/18 29/80/18
f 26/81/16 32/82/16 29/83/16 25/84/16
f 29/89/19 30/90/19 28/91/19 25/92/19
f 27/93/20 31/94/20 32/95/20 26/96/20
usemtl mat8
f 36/97/1 35/98/1 34/99/1 33/100/1
f 35/101/2 38/102/2 37/103/2 34/104/2
f 38/105/3 40/106/3 39/107/3 37/108/3
f 40/109/21 42/110/4 41/111/4 39/112/4
f 42/113/5 44/114/5 43/115/5 41/116/5
f 44/117/22 46/118/6 45/119/6 43/120/6
f 46/121/8 48/122/8 47/123/8 45/124/8
f 48/125/23 50/126/9 49/127/9 47/128/9
f 50/129/10 52/130/10 51/131/10 49/132/10
f 52/133/11 54/134/11 53/135/11 51/136/11
f 54/137/12 56/138/12 55/139/12 53/140/12
f 56/141/14 36/142/14 33/143/14 55/144/14
f 56/157/16 54/158/16 52/159/16 50/160/16 48/161/16 46/162/16 44/163/16 42/164/16 40/165/16 38/166/16 35/167/16 36/168/16
usemtl red_top
f 33/145/15 34/146/15 37/147/15 39/148/15 41/149/15 43/150/15 45/151/15 47/152/15 49/153/15 51/154/15 53/155/15 55/156/15
usemtl Material.001
f 1/49/15 2/50/15 5/51/15 7/52/15 9/53/15 11/54/15 13/55/15 15/56/15 17/57/15 19/58/15 21/59/15 23/60/15
f 30/85/15 31/86/15 27/87/15 28/88/15
