# Blender 4.5.3 LTS
# www.blender.org
mtllib wireway1.mtl
o Untitled1
v 1.000000 -0.000000 0.148884
v -1.000000 0.000000 -0.146651
v 1.000000 0.000000 -0.151116
v -1.000000 -0.000000 0.148884
v 1.000000 0.200000 -0.151116
v -1.000000 0.200000 -0.146651
v 1.000000 0.200000 0.148884
v -1.000000 0.200000 0.148884
vn -0.0000 -1.0000 -0.0000
vn -0.0022 -0.0000 -1.0000
vn -0.0000 1.0000 -0.0000
vn -0.0000 -0.0000 1.0000
s 0
usemtl Material.001
f 5//2 2//2 6//2
f 2//2 5//2 3//2
f 1//4 8//4 4//4
f 8//4 1//4 7//4
usemtl Material.002
f 1//1 2//1 3//1
f 2//1 1//1 4//1
f 6//3 7//3 5//3
f 7//3 6//3 8//3
